<svg xmlns="http://www.w3.org/2000/svg" xmlns:xlink="http://www.w3.org/1999/xlink" width="512" height="532" viewBox="0 0 512 532">
      <defs>
        <clipPath id="sq"><rect x="10" y="6" width="492" height="492" rx="40" ry="40"/></clipPath>
        <filter id="ds" x="-5%" y="-5%" width="115%" height="125%">
          <feDropShadow dx="0" dy="6" stdDeviation="8" flood-color="black" flood-opacity="0.2"/>
        </filter>
      </defs>
      <g filter="url(#ds)">
        <g clip-path="url(#sq)">
          <rect width="100%" height="100%" fill="white"/>
          <svg viewBox="0 0 512 512" x="10" y="6" width="492" height="492" preserveAspectRatio="xMidYMid slice">
  <path fill="#3f9c35" d="M0 0h512v512H0z"/>
  <path fill="#ed2939" d="M0 0h512v341.3H0z"/>
  <path fill="#00b9e4" d="M0 0h512v170.7H0z"/>
  <circle cx="238.8" cy="256" r="76.8" fill="#fff"/>
  <circle cx="255.9" cy="256" r="64" fill="#ed2939"/>
  <path fill="#fff" d="m324.2 213.3 8.1 23 22-10.5-10.4 22 23 8.2-23 8.2 10.4 22-22-10.5-8.1 23-8.2-23-22 10.5 10.5-22-23-8.2 23-8.2-10.5-22 22 10.5z"/>

</svg>
        </g>
      </g>
    </svg>