<svg xmlns="http://www.w3.org/2000/svg" xmlns:xlink="http://www.w3.org/1999/xlink" width="512" height="532" viewBox="0 0 512 532">
      <defs>
        <clipPath id="sq"><rect x="10" y="6" width="492" height="492" rx="40" ry="40"/></clipPath>
        <filter id="ds" x="-5%" y="-5%" width="115%" height="125%">
          <feDropShadow dx="0" dy="6" stdDeviation="8" flood-color="black" flood-opacity="0.2"/>
        </filter>
      </defs>
      <g filter="url(#ds)">
        <g clip-path="url(#sq)">
          <rect width="100%" height="100%" fill="white"/>
          <svg viewBox="0 0 512 512" x="10" y="6" width="492" height="492" preserveAspectRatio="xMidYMid slice">
  <defs>
    <clipPath id="tz-a">
      <path fill-opacity=".7" d="M102.9 0h496v496H103z"/>
    </clipPath>
  </defs>
  <g clip-path="url(#tz-a)" transform="translate(-106.2)scale(1.0321)">
    <g fill-rule="evenodd" stroke-width="1pt">
      <path fill="#09f" d="M0 0h744.1v496H0z"/>
      <path fill="#090" d="M0 0h744.1L0 496z"/>
      <path fill="#000001" d="M0 496h165.4L744 103.4V0H578.7L0 392.7v103.4z"/>
      <path fill="#ff0" d="M0 378 567 0h56L0 415.3v-37.2zm121.1 118 623-415.3V118L177 496z"/>
    </g>
  </g>

</svg>
        </g>
      </g>
    </svg>