<svg xmlns="http://www.w3.org/2000/svg" xmlns:xlink="http://www.w3.org/1999/xlink" width="512" height="532" viewBox="0 0 512 532">
      <defs>
        <clipPath id="sq"><rect x="10" y="6" width="492" height="492" rx="40" ry="40"/></clipPath>
        <filter id="ds" x="-5%" y="-5%" width="115%" height="125%">
          <feDropShadow dx="0" dy="6" stdDeviation="8" flood-color="black" flood-opacity="0.2"/>
        </filter>
      </defs>
      <g filter="url(#ds)">
        <g clip-path="url(#sq)">
          <rect width="100%" height="100%" fill="white"/>
          <svg viewBox="0 0 512 512" x="10" y="6" width="492" height="492" preserveAspectRatio="xMidYMid slice">
  <path fill="#012169" d="M0 0h512v512H0z"/>
  <path fill="#FFF" d="M512 0v64L322 256l190 187v69h-67L254 324 68 512H0v-68l186-187L0 74V0h62l192 188L440 0z"/>
  <path fill="#C8102E" d="m184 324 11 34L42 512H0v-3zm124-12 54 8 150 147v45zM512 0 320 196l-4-44L466 0zM0 1l193 189-59-8L0 49z"/>
  <path fill="#FFF" d="M176 0v512h160V0zM0 176v160h512V176z"/>
  <path fill="#C8102E" d="M0 208v96h512v-96zM208 0v512h96V0z"/>

</svg>
        </g>
      </g>
    </svg>