<svg xmlns="http://www.w3.org/2000/svg" xmlns:xlink="http://www.w3.org/1999/xlink" viewBox="0 0 512 512" width="512" height="512">
      <defs><clipPath id="sh"><path d="M72 66 L72 292 Q72 424 256 486 Q440 424 440 292 L440 66 L256 34 Z"/></clipPath></defs>
      <g clip-path="url(#sh)">
        <rect width="100%" height="100%" fill="white"/>
        <svg viewBox="0 0 640 480" x="72" y="34" width="368" height="452" preserveAspectRatio="xMidYMid slice">
  <defs>
    <clipPath id="is-a">
      <path fill-opacity=".7" d="M0 0h640v480H0z"/>
    </clipPath>
  </defs>
  <g fill-rule="evenodd" stroke-width="0" clip-path="url(#is-a)">
    <path fill="#003897" d="M0 0h666.7v480H0z"/>
    <path fill="#fff" d="M0 186.7h186.7V0h106.6v186.7h373.4v106.6H293.3V480H186.7V293.3H0z"/>
    <path fill="#d72828" d="M0 213.3h213.3V0h53.4v213.3h400v53.4h-400V480h-53.4V266.7H0z"/>
  </g>

</svg>
      </g>
    </svg>